# xmcd
#
# Track frame offsets:
#	150
#	16923
#	27733
#	48209
#	66155
#	84460
#	102761
#	113549
#	124637
#	149096
#	165282
#
# Disc length: 2411 seconds
#
# Revision: 0
# Processed by: cddbd v1.5.2PL0 Copyright (c) Steve Scherf et al.
# Submitted via: dBpowerAMP V4.0
#
DISCID=8809690b
DTITLE=Angela Hayden - In THe Garden
DYEAR=1900
DGENRE=Country
TTITLE0=Mamma He's Crazy
TTITLE1=Happy Yodelling Cowgirl
TTITLE2=In The Garden
TTITLE3=Maggie
TTITLE4=Wabash Waltz
TTITLE5=Daddy's Hands
TTITLE6=Rockin' Over River
TTITLE7=Cattle Call
TTITLE8=Leaving On A Jet Plane
TTITLE9=Love Running Through My Veins
TTITLE10=Moking Bird Yodel
EXTD=
EXTT0=
EXTT1=
EXTT2=
EXTT3=
EXTT4=
EXTT5=
EXTT6=
EXTT7=
EXTT8=
EXTT9=
EXTT10=
PLAYORDER=
